<svg xmlns="http://www.w3.org/2000/svg" viewBox="0 0 1074.61 215.66"><defs><style>.cls-1{fill:#f15a29;}.cls-2,.cls-4{fill:#231f20;}.cls-3{fill:#fff;}.cls-4{fill-rule:evenodd;}</style></defs><g id="Layer_2" data-name="Layer 2"><g id="Layer_1-2" data-name="Layer 1"><path d="M466.06,0V16.21H408.24q-4.82,0-4.81,4.62V31q0,6,6.6,8.9l37.11,16q9.14,4,9.13,17.46V94.89q0,8.61-5,13.59-5.4,5.22-15.45,5.23h-36q-10.14,0-15.79-4.69t-5.65-12.87V75.89h25.07V92.62q0,4.88,4.39,4.88h18.65q4.81,0,4.81-4.63V82.67a8.85,8.85,0,0,0-5.82-8.84l-37.14-16q-10-4.23-10-17.48V18.82Q378.36,0,398.87,0Z"/><path d="M545.5,0V16.21H464.12V0Zm-9.29,113.71H482.69q-8.87,0-13.93-5.4a17.28,17.28,0,0,1-4.64-12.39V77.38q0-14.74,18.07-14.74h23.29V44.15q0-4.14-3.54-4.14h-9.29q-4,0-4,3.8v11.9H464.12V45q0-16.87,20.77-16.88h26.59q18.4,0,18.4,17.37v52h6.33ZM505.48,102V72H493.33c-3.15,0-4.73,1.4-4.73,4.22V96.91q0,5.06,5,5.06Z"/><path d="M618.09,113.71H593.36V46.85a5.57,5.57,0,0,0-.25-2.15,1.15,1.15,0,0,0-1.1-.47q-2.37,0-8.78,5.49a33.58,33.58,0,0,0-7.17,8.19V97.5h7.85v16.21h-39.6V97.5h8.11V16.21h-8.11V0h31.75V40.27a41.12,41.12,0,0,1,10.63-7.69Q595.3,28,602.56,28t11.35,3.84a13.24,13.24,0,0,1,4.18,10.25ZM628.9,0V16.21H584.16V0Z"/><path d="M754.42,0V16.21H627.63V0Zm-11,113.71H718.72V46.85a5.5,5.5,0,0,0-.26-2.15c-.16-.31-.53-.47-1.09-.47q-2.36,0-8.73,5.5a35.52,35.52,0,0,0-7.23,8.2v55.78H676.68V46.85a5.5,5.5,0,0,0-.26-2.15c-.16-.31-.53-.47-1.09-.47q-2.37,0-8.78,5.49a33.85,33.85,0,0,0-7.18,8.19V97.5h7.85v16.21H627.63V97.5h8.11V42.38h-8.11V28h31.74V40.27A41.2,41.2,0,0,1,670,32.58Q678.62,28,685.88,28q13.75,0,15.45,12.24A43.14,43.14,0,0,1,712,32.58q8.7-4.56,16-4.55t11.35,3.84a13.24,13.24,0,0,1,4.18,10.25Z"/><path class="cls-1" d="M851.59,113.71H819.42V74.88q0-8.37-8.75-8.36H794.94v31h16.55v16.21H753.24V97.5h16.55V16.21H753.24V0h70.49q20.43,0,20.43,18.82V43.3q0,17.14-11,18.91v.51q11,0,11,13.22V97.5h7.43Zm-32.5-73V21.09c0-3.25-1.64-4.88-4.9-4.88H794.94V50.14h16Q819.08,50.14,819.09,40.71Z"/><path class="cls-1" d="M903,8.44q0,3.47-5.91,5.91c-3.93,1.63-8.89,2.45-14.85,2.45a37.94,37.94,0,0,1-14.56-2.45c-3.92-1.63-5.87-3.6-5.87-5.91s2-4.36,5.87-6A37.94,37.94,0,0,1,882.23,0,39.23,39.23,0,0,1,897,2.45C901,4.08,903,6.08,903,8.44Zm-.5,105.27H862.14V97.5h8.1v-55h-8.1V28.11h40.35V42.46h-7.94v55h7.94Z"/><path class="cls-1" d="M987.66,113.71H930.34q-10,0-15.36-5.32-5.07-4.9-5.06-13.51V45.75q0-8.86,6.58-13.59,5.65-4,14.35-4h25.33V16.21h-7V0h31.4V97.5h7.09ZM941.32,0V16.21h-31.4V0Zm17.47,44.84q0-5-4.15-5H941.32c-2.87,0-4.31,1.7-4.31,5.08v52.4q0,4.65,4.73,4.65h12.58q4.47,0,4.47-4.47Z"/><path class="cls-1" d="M1074.61,0V16.21H994.33V0ZM1065,77.58h-46.18V97.33c0,3.1,1.58,4.64,4.73,4.64h12.58c2.92,0,4.39-1.6,4.39-4.81V85.68H1065V96.23q0,8.1-5.83,12.79t-15.62,4.69h-28.78q-10.05,0-15.36-5.32-5.07-4.9-5.07-13.51V45.75q0-8.86,6.58-13.59,5.65-4,14.36-4h29.29q20.43,0,20.43,18.15Zm-24.48-9.71v-23c0-3.33-1.36-5-4.06-5H1023.2q-4.4,0-4.39,5.1V67.87Z"/><path class="cls-1" d="M418.09,140.44a230.28,230.28,0,0,0-17,55.64H384.29q7-18.09,16.95-55.64Z"/><path class="cls-1" d="M447.88,170.22q0,2.7-.5,7.4H421a7.2,7.2,0,0,0-.37,2.42,4.09,4.09,0,0,0,2.06,3.52,7.11,7.11,0,0,0,4.06,1.23q4,0,7.36-3.92h11.51a26.59,26.59,0,0,1-8.95,11.55,22.76,22.76,0,0,1-13.8,4.57q-6.72,0-10.71-4t-4-10.78q0-10,7.77-18.23t17.72-8.22Q447.88,155.74,447.88,170.22Zm-10.28,1.05q-.41-5.07-5.57-5.07-4.3,0-8.32,5.07Z"/><path class="cls-1" d="M485.2,155.74l-3.79,12.61q-4.85-.21-9.37-.37a243.43,243.43,0,0,0-6.67,28.1H448.61q4.15-10.65,9.27-28.1c-3.19.09-6.29.22-9.27.37l3.84-12.61q4.24.22,8.9.32,2-7.31,4.21-15.62h16.9q-3.52,7.71-6.4,15.62C479,156,482,155.86,485.2,155.74Z"/><path class="cls-1" d="M523.44,163.87a6.83,6.83,0,0,1-1.74,4.64,5.6,5.6,0,0,1-4.39,2,11.27,11.27,0,0,1-5.39-1.74,5.91,5.91,0,0,0,1.74-3.43c0-1.43-1-2.14-3.06-2.14q-4,0-4,4,0,2.37,3.2,5.12a46,46,0,0,1,5.94,5.62,15.77,15.77,0,0,1,3.24,10q0,6.63-6.44,11.1a21.83,21.83,0,0,1-12.7,4,25.44,25.44,0,0,1-12.65-3.2q-6.85-3.82-6.86-10.28a9.67,9.67,0,0,1,5.26-9,10.46,10.46,0,0,1,5.16-1.56,13.09,13.09,0,0,1,7.35,2.65,4.87,4.87,0,0,0-2.88,4.71q0,4.47,4.89,4.47,6.17,0,6.17-5,0-2.93-3.56-5.35L496.07,176a9.41,9.41,0,0,1-3.52-7.4q0-13,17.46-13Q523.44,155.6,523.44,163.87Z"/><path class="cls-1" d="M591.59,148.84a9.13,9.13,0,0,1-2.15,6,7,7,0,0,1-5.66,2.79,14,14,0,0,1-6.9-2.29q2.61-2.73,2.61-4.7a3,3,0,0,0-1.37-2.51,4.88,4.88,0,0,0-2.93-1q-5.66,0-5.66,6.26,0,4.25,4.29,8l7.95,7A19,19,0,0,1,586,181.05q0,8.49-8.22,14.43a27.3,27.3,0,0,1-16.31,5.44A31.58,31.58,0,0,1,545.36,197a17.67,17.67,0,0,1-6-5.92,14.56,14.56,0,0,1-2.37-7.88q0-8.08,6.53-12.15a12.12,12.12,0,0,1,6.44-2q4.38,0,9.27,3.52c-3.19,1.34-4.79,3.54-4.79,6.62q0,6.3,8,6.3,7.8,0,7.81-7,0-4.51-4.21-8.31l-7.71-6.94a15.63,15.63,0,0,1-4.16-10.74q0-14.52,20.37-14.53Q591.59,137.92,591.59,148.84Z"/><path class="cls-1" d="M628.82,163.37q0,5.67-2.88,16.49-1.28,4.84-4.88,16.22H609l7-23a9.32,9.32,0,0,0,.43-2.51q0-3.53-4.11-3.52-4.89,0-6.71,5.57A194.66,194.66,0,0,0,600,196.08H583.28q7-18.09,16.9-55.64h16.9q-3.74,9-7,18.36a14.5,14.5,0,0,1,9.64-3.11Q628.82,155.69,628.82,163.37Z"/><path class="cls-1" d="M676.1,156.06a282.7,282.7,0,0,0-12.19,40H648.6l.69-2.24a18.27,18.27,0,0,1-9.09,2.51,11.74,11.74,0,0,1-9.64-4.25,15.56,15.56,0,0,1-3.24-10.23,27.79,27.79,0,0,1,6.3-17.59q6.76-8.53,16-8.54,6.81,0,9.92,4.34l1.23-4Zm-21,14.69c0-3.18-1.57-4.78-4.71-4.78a7.73,7.73,0,0,0-5.89,2.83A9,9,0,0,0,642,175q0,5,5,5a7.45,7.45,0,0,0,5.94-2.92A9.7,9.7,0,0,0,655.14,170.75Z"/><path class="cls-1" d="M714.2,166.25c-1.76-.89-4.87-1.33-9.31-1.33a13.16,13.16,0,0,0-8.81,3q-3.93,3.33-10.78,27.41h0l-.22.73H669.71l12.15-40h6.76a16.58,16.58,0,0,1,6.53-1.19Q702.79,154.87,714.2,166.25Z"/><path class="cls-1" d="M747.55,170.22q0,2.7-.5,7.4H720.69a7.2,7.2,0,0,0-.37,2.42,4.09,4.09,0,0,0,2.06,3.52,7.11,7.11,0,0,0,4.06,1.23c2.68,0,5.14-1.31,7.36-3.92h11.51a26.59,26.59,0,0,1-8.95,11.55,22.72,22.72,0,0,1-13.8,4.57q-6.7,0-10.71-4t-4-10.78q0-10,7.77-18.23t17.72-8.22Q747.54,155.74,747.55,170.22Zm-10.28,1.05q-.4-5.07-5.57-5.07-4.29,0-8.32,5.07Z"/><path class="cls-2" d="M811.69,203.75q-11.43,11.42-19.19,11.42a17.06,17.06,0,0,1-12.61-4.89q-5.61-5.61-14.84-29.78l-4.75,15.58h-18a256.76,256.76,0,0,0,17-55.64h21.24q14.16,0,17.68,9.18A26.38,26.38,0,0,1,800,159a21.7,21.7,0,0,1-5.23,14,21.05,21.05,0,0,1-12.58,7.86q6.95,15.57,12.19,19.46,5.94,4.38,10.79,4.39Q809.86,204.67,811.69,203.75ZM783.5,157.7q0-5.38-6.9-5.39a26.92,26.92,0,0,0-3,.19l-4.56,14.84a17.27,17.27,0,0,0,5.39,1,8.08,8.08,0,0,0,6.76-3.29A11.72,11.72,0,0,0,783.5,157.7Z"/><path class="cls-2" d="M822.17,156.06l-12.15,40H794.69l12.15-40Zm5.28-8.95q0,3.15-3.75,5.07a14.12,14.12,0,0,1-6.53,1.55,14.76,14.76,0,0,1-6.67-1.55q-3.75-1.87-3.75-5.12t4-5.12a16,16,0,0,1,6.86-1.5,13.28,13.28,0,0,1,6.39,1.5Q827.46,143.82,827.45,147.11Z"/><path class="cls-2" d="M871.48,140.44a230.59,230.59,0,0,0-17.08,55.64H837.63l.83-2.06a18.33,18.33,0,0,1-8.82,2.33A11.75,11.75,0,0,1,820,192.1a15.56,15.56,0,0,1-3.24-10.23,27.79,27.79,0,0,1,6.3-17.59q6.77-8.53,16-8.54,6.93,0,10,4.52,2.6-9.09,5.48-19.82Zm-26.9,30.31c0-3.18-1.57-4.78-4.71-4.78A7.75,7.75,0,0,0,834,168.8a9,9,0,0,0-2.56,6.19q0,5,5,5a7.43,7.43,0,0,0,5.94-2.92A9.7,9.7,0,0,0,844.58,170.75Z"/><path class="cls-2" d="M900.9,170.22a72.15,72.15,0,0,1-.5,7.4H874a7.47,7.47,0,0,0-.36,2.42,4.08,4.08,0,0,0,2.05,3.52,7.14,7.14,0,0,0,4.07,1.23q4,0,7.35-3.92h11.52a26.62,26.62,0,0,1-9,11.55A22.71,22.71,0,0,1,875.92,197q-6.72,0-10.72-4t-4-10.78q0-10,7.76-18.23t17.73-8.22Q900.91,155.74,900.9,170.22Zm-10.28,1.05q-.4-5.07-5.57-5.07-4.29,0-8.31,5.07Z"/><path d="M70.78,197.86V170.63h97.14q8.09,0,8.08-7.76V145.8q0-10.16-11.09-15l-62.34-26.91Q87.23,97.26,87.23,74.59V38.45q0-14.46,8.37-22.82,9.08-8.79,26-8.79H182.1q17,0,26.52,7.87t9.5,21.63v34H176V42.26q0-8.19-7.37-8.19H137.29q-8.08,0-8.08,7.78V59q0,10.75,9.78,14.86l62.4,26.89q16.73,7.08,16.73,29.35v36.17q0,31.62-34.46,31.62Z"/><path class="cls-1" d="M363.52,2.82V30H227.24V2.82ZM347.64,128.46H306.09V81.68a9.45,9.45,0,0,0-.43-3.63c-.28-.52-.9-.78-1.84-.78q-3.69,0-12.76,9.48a72.78,72.78,0,0,0-10.5,13.45v66.41h13.19v27.22H227.24V166.61h13.61V74.15H227.24V50h53.32V70.46q5.82-6.48,16.31-12.53Q310.34,50,321.54,50q12.06,0,19.08,6.45t7,17.23Z"/><rect class="cls-3" y="147.22" width="171.56" height="68.44"/><path class="cls-2" d="M183.17,195.2a20.35,20.35,0,0,1-2.21,0Z"/><path class="cls-4" d="M183.17,195.2h.75a8.18,8.18,0,0,0,3.82-.66A30.33,30.33,0,0,1,183.17,195.2Zm-27.62-22.5a13.75,13.75,0,1,0,13.76,13.75A13.75,13.75,0,0,0,155.55,172.7Z"/><path class="cls-4" d="M202.68,186.42c-.89,2.84-8,6.6-14.94,8.12a30.33,30.33,0,0,1-4.57.66H170.33v0a17.17,17.17,0,1,0-29.57,0v0H64.11a2.12,2.12,0,0,0,0,.44V203a5.68,5.68,0,0,1-5.66,5.67v-6.53a2.57,2.57,0,0,0,1.83-.76,2.6,2.6,0,0,0,.77-1.84V179.27a2.63,2.63,0,0,1,.76-1.84,2.6,2.6,0,0,1,4.43,1.84v6.52a5.67,5.67,0,0,0,11.33,0V170.53a2.63,2.63,0,0,1,.76-1.84,2.59,2.59,0,0,1,3.67,0,2.64,2.64,0,0,1,.77,1.84v6.72a5.67,5.67,0,0,0,11.33,0v-6.53a2.6,2.6,0,0,1,5.19,0v2.35a4.69,4.69,0,0,0,6.48,3.84A229.64,229.64,0,0,0,127.43,162c1.21-1,2.35-1.94,3.39-2.88.35.18,9.79,1.28,19.9,2.88,8.43,1.35,17.33,3,21.84,4.89a103.06,103.06,0,0,1,9.71,4.47h0l.12.06.22.12C185.42,173,203.82,182.78,202.68,186.42Z"/><path class="cls-4" d="M98.49,153.19a2.59,2.59,0,1,0,0,3.66A2.58,2.58,0,0,0,98.49,153.19ZM82,152a2.6,2.6,0,1,0,0,3.67A2.58,2.58,0,0,0,82,152Zm-16.53,8.85a2.59,2.59,0,1,0,0,3.66A2.57,2.57,0,0,0,65.43,160.87ZM82,152a2.6,2.6,0,1,0,0,3.67A2.58,2.58,0,0,0,82,152Zm16.53,1.17a2.59,2.59,0,1,0,0,3.66A2.58,2.58,0,0,0,98.49,153.19ZM82,152a2.6,2.6,0,1,0,0,3.67A2.58,2.58,0,0,0,82,152Zm16.53,1.17a2.59,2.59,0,1,0,0,3.66A2.58,2.58,0,0,0,98.49,153.19Zm-33.06,7.68a2.59,2.59,0,1,0,0,3.66A2.57,2.57,0,0,0,65.43,160.87Zm65.09-10.14a76.37,76.37,0,0,0-10.35,3.43c-1.09.43-6.41-2.63-7.66-3.11-2.78-1.07-5.59-2.08-8.41-3a67.26,67.26,0,0,0-20.77-3.66,114,114,0,0,0-30.59,3.16c-8.23,2-16.42,4.28-24.61,6.49-6.13,1.66-12.5,4.07-18.83,4.9-3.71.51-8,0-8.32,1-2.12,6.65.93,14.7,2,21.32a34,34,0,0,1,.65,7.24A5.36,5.36,0,0,0,4,191.66c1.1,1.73,4.87,1.86,6.74,2.3,1.6.38,3.6,1.24,5.26,1.24h1.23a17.18,17.18,0,1,1,29.55,0H57.94V175.81a5.67,5.67,0,0,1,11.33,0v7.39A2.6,2.6,0,0,0,70,185a2.61,2.61,0,0,0,3.67,0,2.61,2.61,0,0,0,.77-1.83V167.07a5.66,5.66,0,0,1,1.65-4l0,0a5.59,5.59,0,0,1,1.42-1,5.68,5.68,0,0,1,5.11,0,5.58,5.58,0,0,1,1.45,1,5.64,5.64,0,0,1,1.67,4v6.71a2.59,2.59,0,0,0,4.42,1.84,2.56,2.56,0,0,0,.77-1.84v-5.65a5.67,5.67,0,0,1,11.33,0v.49a3.49,3.49,0,0,0,1.82,3c2.08,1.13,10.84-4.09,18.28-9.56a74,74,0,0,0,9.81-8.27C134.37,151.12,133.81,150.11,130.52,150.73Zm-62.92,16a5.66,5.66,0,1,1,0-8A5.65,5.65,0,0,1,67.6,166.7ZM92.65,151a5.66,5.66,0,1,1,0,8A5.65,5.65,0,0,1,92.65,151Zm-16.53,6.84a5.66,5.66,0,1,1,8,0A5.67,5.67,0,0,1,76.12,157.86Zm22.37-1a2.59,2.59,0,1,0-3.67,0A2.57,2.57,0,0,0,98.49,156.85ZM78.29,152A2.6,2.6,0,1,0,82,152,2.6,2.6,0,0,0,78.29,152Zm-16.52,8.85a2.59,2.59,0,1,0,3.66,0A2.57,2.57,0,0,0,61.77,160.87ZM82,152a2.6,2.6,0,1,0,0,3.67A2.58,2.58,0,0,0,82,152Zm16.53,1.17a2.59,2.59,0,1,0,0,3.66A2.58,2.58,0,0,0,98.49,153.19Zm-33.06,7.68a2.59,2.59,0,1,0,0,3.66A2.57,2.57,0,0,0,65.43,160.87ZM32,172.7a13.76,13.76,0,1,0,13.76,13.75A13.75,13.75,0,0,0,32,172.7Zm33.4-11.83a2.59,2.59,0,1,0,0,3.66A2.57,2.57,0,0,0,65.43,160.87Z"/></g></g></svg>