<svg xmlns="http://www.w3.org/2000/svg" viewBox="0 0 363.52 212.85"><defs><style>.cls-1,.cls-4{fill:#f15a29;}.cls-2{fill:#fff;}.cls-3{fill:#231f20;}.cls-4{fill-rule:evenodd;}</style></defs><g id="Layer_2" data-name="Layer 2"><g id="Layer_1-2" data-name="Layer 1"><path class="cls-1" d="M70.78,195V167.81h97.14q8.09,0,8.08-7.76V143q0-10.15-11.09-14.95l-62.34-26.92Q87.23,94.45,87.23,71.77V35.63q0-14.46,8.37-22.82Q104.68,4,121.55,4H182.1q17,0,26.52,7.87t9.5,21.63v34H176V39.45q0-8.21-7.37-8.2H137.29q-8.08,0-8.08,7.78V56.16q0,10.75,9.78,14.85l62.4,26.89q16.73,7.09,16.73,29.35v36.17q0,31.62-34.46,31.62Z"/><path class="cls-2" d="M363.52,0V27.23H227.24V0ZM347.64,125.64H306.09V78.86a9.25,9.25,0,0,0-.43-3.63c-.28-.52-.9-.78-1.84-.78q-3.69,0-12.76,9.49a72.78,72.78,0,0,0-10.5,13.45v66.4h13.19V191H227.24V163.79h13.61V71.33H227.24V47.22h53.32V67.64q5.82-6.48,16.31-12.53,13.47-7.89,24.67-7.89,12.06,0,19.08,6.45t7,17.23Z"/><rect class="cls-3" y="144.4" width="171.56" height="68.44"/><path class="cls-1" d="M183.17,192.38a18.1,18.1,0,0,1-2.21,0Z"/><path class="cls-4" d="M183.17,192.38h.75a8.33,8.33,0,0,0,3.82-.65A29.05,29.05,0,0,1,183.17,192.38Zm-27.62-22.5a13.75,13.75,0,1,0,13.76,13.76A13.75,13.75,0,0,0,155.55,169.88Z"/><path class="cls-4" d="M202.68,183.6c-.89,2.84-8,6.6-14.94,8.13a29.05,29.05,0,0,1-4.57.65H170.33v0a17.17,17.17,0,1,0-29.57,0v0H64.11a2.12,2.12,0,0,0,0,.44v7.39a5.63,5.63,0,0,1-1.66,4,5.57,5.57,0,0,1-4,1.67v-6.52a2.63,2.63,0,0,0,2.6-2.6v-20.3a2.59,2.59,0,0,1,4.42-1.83,2.55,2.55,0,0,1,.77,1.83V183a5.67,5.67,0,0,0,11.33,0V167.71a2.6,2.6,0,0,1,5.2,0v6.72a5.67,5.67,0,0,0,11.33,0v-6.52a2.6,2.6,0,0,1,5.19,0v2.34a4.68,4.68,0,0,0,6.48,3.85,231.54,231.54,0,0,0,21.7-14.89c1.21-1,2.35-1.94,3.39-2.89.35.18,9.79,1.28,19.9,2.89,8.43,1.34,17.33,3,21.84,4.88a102.72,102.72,0,0,1,9.71,4.48h0l.12.07.22.11C185.42,170.21,203.82,180,202.68,183.6Z"/><path class="cls-4" d="M98.49,150.38a2.59,2.59,0,1,0,0,3.66A2.57,2.57,0,0,0,98.49,150.38ZM82,149.2a2.6,2.6,0,1,0,0,3.67A2.58,2.58,0,0,0,82,149.2Zm-16.53,8.85a2.59,2.59,0,1,0,0,3.67A2.57,2.57,0,0,0,65.43,158.05ZM82,149.2a2.6,2.6,0,1,0,0,3.67A2.58,2.58,0,0,0,82,149.2Zm16.53,1.18a2.59,2.59,0,1,0,0,3.66A2.57,2.57,0,0,0,98.49,150.38ZM82,149.2a2.6,2.6,0,1,0,0,3.67A2.58,2.58,0,0,0,82,149.2Zm16.53,1.18a2.59,2.59,0,1,0,0,3.66A2.57,2.57,0,0,0,98.49,150.38Zm-33.06,7.67a2.59,2.59,0,1,0,0,3.67A2.57,2.57,0,0,0,65.43,158.05Zm65.09-10.14a76.37,76.37,0,0,0-10.35,3.43c-1.09.43-6.41-2.63-7.66-3.11-2.78-1.06-5.59-2.08-8.41-3a67.25,67.25,0,0,0-20.77-3.65,113.54,113.54,0,0,0-30.59,3.16c-8.23,2-16.42,4.27-24.61,6.49-6.13,1.65-12.5,4.06-18.83,4.9-3.71.5-8,0-8.32,1-2.12,6.65.93,14.7,2,21.33a33.84,33.84,0,0,1,.65,7.23A5.36,5.36,0,0,0,4,188.84c1.1,1.74,4.87,1.87,6.74,2.3,1.6.39,3.6,1.24,5.26,1.24h1.23a17.18,17.18,0,1,1,29.55,0H57.94V173a5.67,5.67,0,0,1,11.33,0v7.38a2.59,2.59,0,0,0,.76,1.83,2.65,2.65,0,0,0,1.31.71,2.61,2.61,0,0,0,3.13-2.54V164.25a5.66,5.66,0,0,1,1.65-4l0,0a5.32,5.32,0,0,1,1.42-1,5.61,5.61,0,0,1,5.11,0,5.54,5.54,0,0,1,1.45,1,5.64,5.64,0,0,1,1.67,4V171a2.59,2.59,0,0,0,4.42,1.84A2.56,2.56,0,0,0,91,171v-5.65a5.67,5.67,0,0,1,11.33,0v.5a3.49,3.49,0,0,0,1.82,3c2.08,1.13,10.84-4.1,18.28-9.56a75.57,75.57,0,0,0,9.81-8.27C134.37,148.3,133.81,147.3,130.52,147.91Zm-62.92,16a5.66,5.66,0,1,1,0-8A5.66,5.66,0,0,1,67.6,163.89Zm25.05-15.68a5.66,5.66,0,1,1,0,8A5.65,5.65,0,0,1,92.65,148.21ZM76.12,155a5.66,5.66,0,1,1,8,0A5.67,5.67,0,0,1,76.12,155Zm22.37-1a2.6,2.6,0,1,0-3.67,0A2.57,2.57,0,0,0,98.49,154Zm-20.2-4.84a2.6,2.6,0,1,0,3.67,0A2.6,2.6,0,0,0,78.29,149.2Zm-16.52,8.85a2.59,2.59,0,1,0,3.66,0A2.58,2.58,0,0,0,61.77,158.05ZM82,149.2a2.6,2.6,0,1,0,0,3.67A2.58,2.58,0,0,0,82,149.2Zm16.53,1.18a2.59,2.59,0,1,0,0,3.66A2.57,2.57,0,0,0,98.49,150.38Zm-33.06,7.67a2.59,2.59,0,1,0,0,3.67A2.57,2.57,0,0,0,65.43,158.05ZM32,169.88a13.76,13.76,0,1,0,13.76,13.76A13.75,13.75,0,0,0,32,169.88Zm33.4-11.83a2.59,2.59,0,1,0,0,3.67A2.57,2.57,0,0,0,65.43,158.05Z"/></g></g></svg>