<svg xmlns="http://www.w3.org/2000/svg" viewBox="0 0 696.25 215.17"><defs><style>.cls-1{fill:#f15a29;}.cls-2{fill:#fff;}</style></defs><g id="Layer_2" data-name="Layer 2"><g id="Layer_1-2" data-name="Layer 1"><path class="cls-1" d="M87.71,0V16.21H29.88q-4.81,0-4.81,4.62V31q0,6,6.6,8.9l37.11,16q9.14,4,9.14,17.46V94.89q0,8.61-5,13.58-5.4,5.23-15.44,5.24h-36q-10.13,0-15.78-4.69T0,96.15V75.89H25.07V92.62q0,4.88,4.39,4.88H48.12c3.2,0,4.81-1.54,4.81-4.63V82.67a8.84,8.84,0,0,0-5.83-8.84L10,57.82Q0,53.61,0,40.35V18.82Q0,0,20.51,0Z"/><path class="cls-1" d="M167.14,0V16.21H85.76V0Zm-9.28,113.71H104.34q-8.86,0-13.93-5.4a17.24,17.24,0,0,1-4.65-12.39V77.38q0-14.74,18.07-14.75h23.3V44.15q0-4.14-3.55-4.14H114.3q-4,0-4,3.8v11.9H85.76V45q0-16.87,20.77-16.88h26.59q18.4,0,18.4,17.37v52h6.34ZM127.13,102V72H115c-3.15,0-4.72,1.4-4.72,4.22V96.91c0,3.37,1.65,5.06,5,5.06Z"/><path class="cls-1" d="M239.74,113.71H215V46.85a5.57,5.57,0,0,0-.25-2.15,1.15,1.15,0,0,0-1.1-.47q-2.35,0-8.78,5.49a34,34,0,0,0-7.17,8.19V97.5h7.85v16.21H166V97.5h8.1V16.21H166V0H197.7V40.27a41.12,41.12,0,0,1,10.63-7.69c5.75-3,11-4.55,15.88-4.55s8.56,1.28,11.35,3.84a13.27,13.27,0,0,1,4.18,10.25ZM250.54,0V16.21H205.8V0Z"/><path class="cls-1" d="M376.07,0V16.21H249.28V0Zm-11,113.71H340.36V46.85a5.57,5.57,0,0,0-.25-2.15,1.13,1.13,0,0,0-1.09-.47q-2.36,0-8.74,5.5a35.76,35.76,0,0,0-7.23,8.2v55.78H298.32V46.85a5.57,5.57,0,0,0-.25-2.15,1.15,1.15,0,0,0-1.1-.47q-2.37,0-8.78,5.49A34,34,0,0,0,281,57.91V97.5h7.85v16.21H249.28V97.5h8.1V42.38h-8.1V28H281V40.27a41.12,41.12,0,0,1,10.63-7.69Q300.26,28,307.52,28,321.27,28,323,40.27a43.21,43.21,0,0,1,10.64-7.69Q342.29,28,349.56,28t11.36,3.84a13.27,13.27,0,0,1,4.17,10.25Z"/><path class="cls-2" d="M473.23,113.71H441.07V74.88q0-8.37-8.75-8.36H416.59v31h16.54v16.21H374.89V97.5h16.54V16.21H374.89V0h70.48Q465.8,0,465.8,18.82V43.3q0,17.14-11,18.91v.51q11,0,11,13.22V97.5h7.43Zm-32.5-73V21.09q0-4.87-4.9-4.88H416.59V50.14h16Q440.73,50.14,440.73,40.71Z"/><path class="cls-2" d="M524.64,8.44q0,3.47-5.91,5.91T503.87,16.8a38,38,0,0,1-14.56-2.45q-5.87-2.44-5.87-5.91t5.87-6A38,38,0,0,1,503.87,0a39.19,39.19,0,0,1,14.77,2.45Q524.64,4.89,524.64,8.44Zm-.51,105.27H483.78V97.5h8.1v-55h-8.1V28.11h40.35V42.46H516.2v55h7.93Z"/><path class="cls-2" d="M609.31,113.71H552q-10.05,0-15.37-5.32-5.05-4.9-5.06-13.51V45.75q0-8.86,6.58-13.59,5.65-4,14.36-4h25.32V16.21h-7V0h31.4V97.5h7.1ZM563,0V16.21h-31.4V0Zm17.48,44.84q0-5-4.16-5H563c-2.87,0-4.3,1.7-4.3,5.08v52.4q0,4.65,4.72,4.65H576c3,0,4.48-1.49,4.48-4.47Z"/><path class="cls-2" d="M696.25,0V16.21H616V0Zm-9.62,77.58H640.46V97.33c0,3.1,1.57,4.64,4.72,4.64h12.58q4.4,0,4.39-4.81V85.68h24.48V96.23q0,8.1-5.83,12.79t-15.61,4.69H636.4q-10,0-15.36-5.32Q616,103.49,616,94.88V45.75q0-8.86,6.59-13.59,5.66-4,14.35-4H666.2q20.43,0,20.43,18.15Zm-24.48-9.71v-23q0-5-4-5H644.84q-4.38,0-4.38,5.1V67.87Z"/><path class="cls-2" d="M39.74,140.44a229.4,229.4,0,0,0-17,55.64H5.93q7-18.09,17-55.64Z"/><path class="cls-2" d="M69.52,170.22q0,2.7-.5,7.4H42.66A7.47,7.47,0,0,0,42.3,180a4.09,4.09,0,0,0,2.05,3.52,7.12,7.12,0,0,0,4.07,1.23q4,0,7.35-3.92H67.28a26.59,26.59,0,0,1-9,11.55A22.71,22.71,0,0,1,44.54,197q-6.72,0-10.72-4t-4-10.78q0-10,7.76-18.23t17.73-8.22Q69.53,155.74,69.52,170.22Zm-10.28,1.05q-.41-5.07-5.57-5.07-4.29,0-8.31,5.07Z"/><path class="cls-2" d="M106.84,155.74l-3.79,12.61c-3.22-.14-6.35-.26-9.36-.37A241.38,241.38,0,0,0,87,196.08H70.25q4.17-10.65,9.28-28.1c-3.2.09-6.29.22-9.28.37l3.84-12.61q4.25.22,8.91.32,2-7.31,4.2-15.62h16.9q-3.51,7.71-6.39,15.62C100.63,156,103.68,155.86,106.84,155.74Z"/><path class="cls-2" d="M145.08,163.87a6.83,6.83,0,0,1-1.74,4.64,5.58,5.58,0,0,1-4.38,2,11.27,11.27,0,0,1-5.39-1.74,5.88,5.88,0,0,0,1.73-3.43c0-1.43-1-2.14-3.06-2.14q-4,0-4,4,0,2.37,3.2,5.12a44.6,44.6,0,0,1,5.94,5.62,15.77,15.77,0,0,1,3.24,10q0,6.63-6.44,11.1a21.83,21.83,0,0,1-12.7,4,25.46,25.46,0,0,1-12.65-3.2Q102,196,102,189.54a9.7,9.7,0,0,1,5.25-9,10.6,10.6,0,0,1,5.16-1.55,13.1,13.1,0,0,1,7.36,2.65,4.87,4.87,0,0,0-2.88,4.71q0,4.47,4.89,4.47,6.17,0,6.16-5c0-2-1.18-3.73-3.56-5.35L117.72,176a9.38,9.38,0,0,1-3.52-7.4q0-13,17.45-13Q145.07,155.6,145.08,163.87Z"/><path class="cls-2" d="M213.24,148.84a9.19,9.19,0,0,1-2.15,6,7,7,0,0,1-5.66,2.79,14,14,0,0,1-6.9-2.29q2.59-2.73,2.6-4.7a3,3,0,0,0-1.37-2.51,4.86,4.86,0,0,0-2.92-1q-5.67,0-5.67,6.26,0,4.25,4.3,8l7.95,7a19,19,0,0,1,4.24,12.56q0,8.49-8.22,14.43a27.28,27.28,0,0,1-16.31,5.44A31.51,31.51,0,0,1,167,197a17.5,17.5,0,0,1-6-5.92,14.48,14.48,0,0,1-2.38-7.88q0-8.08,6.53-12.15a12.15,12.15,0,0,1,6.45-2q4.38,0,9.27,3.51c-3.2,1.35-4.8,3.55-4.8,6.63q0,6.3,7.95,6.3t7.81-7q0-4.51-4.2-8.31l-7.72-6.94a15.68,15.68,0,0,1-4.16-10.74q0-14.52,20.38-14.53Q213.24,137.92,213.24,148.84Z"/><path class="cls-2" d="M250.47,163.37q0,5.67-2.88,16.49-1.28,4.84-4.89,16.22h-12l7-23a9.39,9.39,0,0,0,.44-2.51q0-3.53-4.11-3.52-4.89,0-6.72,5.57a194.49,194.49,0,0,0-5.57,23.44H204.92q7-18.09,16.91-55.64h16.9q-3.75,9-7,18.36a14.5,14.5,0,0,1,9.64-3.11Q250.47,155.69,250.47,163.37Z"/><path class="cls-2" d="M297.75,156.06a282.75,282.75,0,0,0-12.2,40h-15.3l.68-2.24a18.24,18.24,0,0,1-9.09,2.51,11.78,11.78,0,0,1-9.64-4.25A15.56,15.56,0,0,1,249,181.87a27.77,27.77,0,0,1,6.3-17.59q6.76-8.53,16-8.54,6.81,0,9.91,4.34l1.24-4Zm-21,14.69c0-3.18-1.57-4.78-4.7-4.78a7.75,7.75,0,0,0-5.9,2.83,9,9,0,0,0-2.56,6.19q0,5,5,5a7.42,7.42,0,0,0,5.94-2.92A9.7,9.7,0,0,0,276.78,170.75Z"/><path class="cls-2" d="M335.85,166.25c-1.77-.89-4.87-1.33-9.32-1.33a13.16,13.16,0,0,0-8.81,3q-3.93,3.33-10.78,27.41h0l-.22.73H291.35l12.15-40h6.76a16.63,16.63,0,0,1,6.54-1.19Q324.42,154.87,335.85,166.25Z"/><path class="cls-2" d="M369.19,170.22a72.15,72.15,0,0,1-.5,7.4H342.33A7.47,7.47,0,0,0,342,180a4.09,4.09,0,0,0,2,3.52,7.14,7.14,0,0,0,4.07,1.23q4,0,7.35-3.92H367a26.62,26.62,0,0,1-9,11.55A22.71,22.71,0,0,1,344.21,197q-6.72,0-10.72-4t-4-10.78q0-10,7.76-18.23T355,155.74Q369.19,155.74,369.19,170.22Zm-10.27,1.05q-.42-5.07-5.58-5.07-4.29,0-8.31,5.07Z"/><path class="cls-1" d="M433.33,203.75q-11.41,11.42-19.18,11.42a17.06,17.06,0,0,1-12.61-4.89q-5.62-5.61-14.85-29.78l-4.75,15.58h-18a256.76,256.76,0,0,0,16.95-55.64h21.24q14.16,0,17.68,9.18a26.18,26.18,0,0,1,1.83,9.36,21.75,21.75,0,0,1-5.23,14,21.07,21.07,0,0,1-12.59,7.86q6.94,15.57,12.2,19.46,5.94,4.38,10.78,4.39C429.94,204.67,432.11,204.36,433.33,203.75ZM405.15,157.7q0-5.38-6.9-5.39a26.63,26.63,0,0,0-3,.19l-4.57,14.84a17.32,17.32,0,0,0,5.39,1,8.07,8.07,0,0,0,6.76-3.29A11.73,11.73,0,0,0,405.15,157.7Z"/><path class="cls-1" d="M443.81,156.06l-12.15,40H416.34l12.15-40Zm5.28-8.95q0,3.15-3.74,5.07a14.14,14.14,0,0,1-6.54,1.55,14.79,14.79,0,0,1-6.67-1.55q-3.74-1.87-3.74-5.12t4-5.12a15.91,15.91,0,0,1,6.85-1.5,13.29,13.29,0,0,1,6.4,1.5Q449.09,143.82,449.09,147.11Z"/><path class="cls-1" d="M493.13,140.44A230.61,230.61,0,0,0,476,196.08H459.28l.82-2.06a18.3,18.3,0,0,1-8.82,2.33,11.75,11.75,0,0,1-9.63-4.25q-3.25-3.93-3.25-10.23a27.72,27.72,0,0,1,6.31-17.59q6.75-8.53,16-8.54,6.94,0,10.05,4.52,2.61-9.09,5.48-19.82Zm-26.91,30.31c0-3.18-1.57-4.78-4.7-4.78a7.75,7.75,0,0,0-5.9,2.83,9,9,0,0,0-2.55,6.19q0,5,5,5a7.42,7.42,0,0,0,5.94-2.92A9.65,9.65,0,0,0,466.22,170.75Z"/><path class="cls-1" d="M522.55,170.22q0,2.7-.5,7.4H495.69a7.2,7.2,0,0,0-.37,2.42,4.1,4.1,0,0,0,2.06,3.52,7.09,7.09,0,0,0,4.06,1.23q4,0,7.36-3.92h11.51a26.59,26.59,0,0,1-8.95,11.55,22.74,22.74,0,0,1-13.8,4.57q-6.72,0-10.71-4t-4-10.78q0-10,7.77-18.23t17.72-8.22Q522.54,155.74,522.55,170.22Zm-10.28,1.05q-.4-5.07-5.57-5.07-4.31,0-8.32,5.07Z"/></g></g></svg>