<svg xmlns="http://www.w3.org/2000/svg" viewBox="0 0 700.32 213.17"><defs><style>.cls-1{fill:#0a263b;}.cls-2{fill:#2a9df4;}</style></defs><g id="Layer_2" data-name="Layer 2"><g id="Layer_1-2" data-name="Layer 1"><path class="cls-1" d="M91.77,0V16.21H34q-4.82,0-4.81,4.62V31q0,6,6.6,8.9l37.11,16Q82,59.88,82,73.38V94.89q0,8.61-5,13.59-5.4,5.22-15.45,5.23h-36q-10.14,0-15.79-4.69T4.07,96.15V75.89H29.14V92.62q0,4.88,4.39,4.88H52.18Q57,97.5,57,92.87V82.67a8.85,8.85,0,0,0-5.82-8.84L14,57.83q-10-4.23-10-17.48V18.82Q4.07,0,24.58,0Z"/><path class="cls-1" d="M171.21,0V16.21H89.83V0Zm-9.29,113.71H108.4q-8.87,0-13.93-5.4a17.26,17.26,0,0,1-4.64-12.39V77.38q0-14.74,18.07-14.74h23.29V44.15q0-4.14-3.54-4.14h-9.29q-4,0-4,3.8v11.9H89.83V45q0-16.87,20.77-16.88h26.59q18.41,0,18.4,17.37v52h6.33ZM131.19,102V72H119c-3.15,0-4.73,1.4-4.73,4.22V96.91q0,5.06,5,5.06Z"/><path class="cls-1" d="M243.8,113.71H219.07V46.85a5.57,5.57,0,0,0-.25-2.15,1.15,1.15,0,0,0-1.1-.47q-2.37,0-8.78,5.49a33.58,33.58,0,0,0-7.17,8.19V97.5h7.85v16.21H170V97.5h8.1V16.21H170V0h31.74V40.27a41.12,41.12,0,0,1,10.63-7.69Q221,28,228.27,28t11.35,3.84a13.24,13.24,0,0,1,4.18,10.25ZM254.61,0V16.21H209.87V0Z"/><path class="cls-1" d="M380.13,0V16.21H253.34V0Zm-11,113.71H344.43V46.85a5.5,5.5,0,0,0-.26-2.15c-.16-.31-.53-.47-1.09-.47q-2.35,0-8.73,5.5a35.52,35.52,0,0,0-7.23,8.2v55.78H302.39V46.85a5.5,5.5,0,0,0-.26-2.15c-.16-.31-.53-.47-1.09-.47q-2.37,0-8.78,5.49a33.85,33.85,0,0,0-7.18,8.19V97.5h7.85v16.21H253.34V97.5h8.11V42.38h-8.11V28h31.74V40.27a41.2,41.2,0,0,1,10.64-7.69Q304.33,28,311.59,28,325.35,28,327,40.27a43.14,43.14,0,0,1,10.63-7.69q8.7-4.56,16-4.55T365,31.87a13.24,13.24,0,0,1,4.18,10.25Z"/><path class="cls-2" d="M477.3,113.71H445.13V74.88q0-8.37-8.75-8.36H420.65v31H437.2v16.21H379V97.5H395.5V16.21H379V0h70.49q20.43,0,20.43,18.82V43.3q0,17.14-11,18.91v.51q11,0,11,13.22V97.5h7.43Zm-32.5-73V21.09c0-3.25-1.64-4.88-4.9-4.88H420.65V50.14h16Q444.79,50.14,444.8,40.71Z"/><path class="cls-2" d="M528.7,8.44q0,3.47-5.91,5.91c-3.93,1.63-8.89,2.45-14.85,2.45a37.94,37.94,0,0,1-14.56-2.45c-3.92-1.63-5.87-3.6-5.87-5.91s1.95-4.36,5.87-6A37.94,37.94,0,0,1,507.94,0a39.23,39.23,0,0,1,14.77,2.45C526.71,4.08,528.7,6.08,528.7,8.44Zm-.5,105.27H487.85V97.5H496v-55h-8.1V28.11H528.2V42.46h-7.94v55h7.94Z"/><path class="cls-2" d="M613.37,113.71H556.05q-10,0-15.36-5.32-5.07-4.89-5.06-13.51V45.75q0-8.86,6.58-13.59,5.65-4,14.35-4h25.33V16.21h-7V0h31.4V97.5h7.09ZM567,0V16.21h-31.4V0ZM584.5,44.84q0-5-4.15-5H567c-2.87,0-4.31,1.7-4.31,5.08v52.4q0,4.65,4.73,4.65H580q4.47,0,4.47-4.47Z"/><path class="cls-2" d="M700.32,0V16.21H620V0ZM690.7,77.58H644.52V97.33c0,3.1,1.58,4.64,4.73,4.64h12.58c2.92,0,4.39-1.6,4.39-4.81V85.68H690.7V96.23q0,8.11-5.83,12.79t-15.62,4.69H640.47q-10.05,0-15.36-5.32Q620,103.5,620,94.88V45.75q0-8.86,6.58-13.59,5.65-4,14.36-4h29.29q20.43,0,20.43,18.15Zm-24.48-9.71v-23q0-5-4.06-5H648.91q-4.39,0-4.39,5.1V67.87Z"/><path class="cls-2" d="M33.8,138.44a229.83,229.83,0,0,0-17,55.64H0Q7,176,17,138.44Z"/><path class="cls-2" d="M63.59,168.22q0,2.7-.5,7.4H36.73a7.2,7.2,0,0,0-.37,2.42,4.09,4.09,0,0,0,2.06,3.52,7.11,7.11,0,0,0,4.06,1.23c2.68,0,5.14-1.3,7.36-3.92H61.35a26.59,26.59,0,0,1-9,11.55A22.74,22.74,0,0,1,38.6,195q-6.72,0-10.71-4t-4-10.78q0-10,7.77-18.23t17.72-8.22Q63.59,153.74,63.59,168.22Zm-10.28,1.05q-.41-5.07-5.57-5.07-4.29,0-8.32,5.07Z"/><path class="cls-2" d="M100.91,153.74l-3.79,12.61q-4.84-.21-9.37-.37a241.37,241.37,0,0,0-6.66,28.1H64.32q4.16-10.65,9.27-28.1c-3.19.1-6.29.22-9.27.37l3.84-12.61q4.25.22,8.91.32,2-7.31,4.2-15.62h16.9q-3.51,7.71-6.39,15.62Q96.16,153.93,100.91,153.74Z"/><path class="cls-2" d="M139.15,161.87a6.83,6.83,0,0,1-1.74,4.64,5.59,5.59,0,0,1-4.38,2,11.27,11.27,0,0,1-5.4-1.74,5.91,5.91,0,0,0,1.74-3.43c0-1.43-1-2.14-3.06-2.14q-4,0-4,4c0,1.59,1.07,3.29,3.2,5.12a46,46,0,0,1,5.94,5.62,15.77,15.77,0,0,1,3.24,10q0,6.63-6.44,11.1a21.83,21.83,0,0,1-12.7,4,25.33,25.33,0,0,1-12.65-3.2Q96,194,96,187.54a9.68,9.68,0,0,1,5.26-9,10.46,10.46,0,0,1,5.16-1.56,13.07,13.07,0,0,1,7.35,2.65,4.88,4.88,0,0,0-2.87,4.71c0,3,1.62,4.47,4.88,4.47,4.12,0,6.17-1.67,6.17-5q0-2.93-3.56-5.34L111.78,174a9.4,9.4,0,0,1-3.51-7.4q0-13,17.45-13Q139.14,153.6,139.15,161.87Z"/><path class="cls-2" d="M207.3,146.84a9.18,9.18,0,0,1-2.14,6,7.06,7.06,0,0,1-5.67,2.79,14,14,0,0,1-6.9-2.28q2.61-2.74,2.61-4.71a3,3,0,0,0-1.37-2.51,4.88,4.88,0,0,0-2.93-1q-5.66,0-5.66,6.26,0,4.25,4.29,8l7.95,7a19,19,0,0,1,4.25,12.56q0,8.49-8.22,14.43a27.3,27.3,0,0,1-16.31,5.44A31.58,31.58,0,0,1,161.07,195a17.73,17.73,0,0,1-6-5.91,14.61,14.61,0,0,1-2.37-7.88q0-8.1,6.53-12.16a12.12,12.12,0,0,1,6.44-2q4.4,0,9.28,3.52c-3.2,1.34-4.8,3.54-4.8,6.62q0,6.3,7.95,6.3t7.81-7q0-4.51-4.2-8.31L174,161.19a15.63,15.63,0,0,1-4.16-10.74q0-14.52,20.37-14.53Q207.3,135.92,207.3,146.84Z"/><path class="cls-2" d="M244.53,161.37q0,5.67-2.87,16.49-1.29,4.84-4.89,16.22h-12l7-23a9.45,9.45,0,0,0,.43-2.52q0-3.53-4.11-3.52-4.89,0-6.71,5.57a194.66,194.66,0,0,0-5.58,23.44H199q7-18.09,16.9-55.64h16.9q-3.73,9-7,18.36a14.5,14.5,0,0,1,9.64-3.1Q244.53,153.7,244.53,161.37Z"/><path class="cls-2" d="M291.82,154.06a281.45,281.45,0,0,0-12.2,40H264.31l.69-2.24a18.24,18.24,0,0,1-9.09,2.51,11.74,11.74,0,0,1-9.64-4.25A15.56,15.56,0,0,1,243,179.87a27.79,27.79,0,0,1,6.3-17.59q6.77-8.53,16-8.54,6.79,0,9.91,4.34l1.23-4Zm-21,14.69c0-3.18-1.57-4.78-4.71-4.78a7.76,7.76,0,0,0-5.89,2.83,9,9,0,0,0-2.56,6.19q0,5,5,5a7.45,7.45,0,0,0,5.94-2.92A9.7,9.7,0,0,0,270.85,168.75Z"/><path class="cls-2" d="M329.91,164.25c-1.76-.89-4.87-1.33-9.31-1.33a13.16,13.16,0,0,0-8.81,3q-3.93,3.33-10.78,27.41H301l-.22.73H285.42l12.15-40h6.76a16.62,16.62,0,0,1,6.53-1.19Q318.5,152.87,329.91,164.25Z"/><path class="cls-2" d="M363.26,168.22q0,2.7-.5,7.4H336.4A7.47,7.47,0,0,0,336,178a4.08,4.08,0,0,0,2,3.52,7.12,7.12,0,0,0,4.07,1.23c2.68,0,5.13-1.3,7.35-3.92H361a26.59,26.59,0,0,1-8.95,11.55,22.72,22.72,0,0,1-13.8,4.57q-6.7,0-10.71-4t-4-10.78q0-10,7.77-18.23t17.72-8.22Q363.27,153.74,363.26,168.22ZM353,169.27q-.41-5.07-5.57-5.07c-2.86,0-5.64,1.69-8.31,5.07Z"/><path class="cls-1" d="M427.4,201.75Q416,213.18,408.21,213.17a17.11,17.11,0,0,1-12.61-4.88q-5.61-5.62-14.84-29.79L376,194.08H358A256.76,256.76,0,0,0,375,138.44H396.2q14.16,0,17.68,9.18A26.38,26.38,0,0,1,415.7,157a21.7,21.7,0,0,1-5.23,14,21,21,0,0,1-12.58,7.86q6.94,15.59,12.19,19.46,5.94,4.38,10.79,4.39Q425.57,202.67,427.4,201.75Zm-28.19-46q0-5.4-6.89-5.4a26.63,26.63,0,0,0-3,.19l-4.57,14.84a17.27,17.27,0,0,0,5.39,1,8.08,8.08,0,0,0,6.76-3.29A11.71,11.71,0,0,0,399.21,155.71Z"/><path class="cls-1" d="M437.88,154.06l-12.15,40H410.4l12.15-40Zm5.28-8.95q0,3.15-3.75,5.07a14.12,14.12,0,0,1-6.53,1.55,14.76,14.76,0,0,1-6.67-1.55q-3.75-1.87-3.75-5.12t4-5.12a16,16,0,0,1,6.86-1.5,13.28,13.28,0,0,1,6.39,1.5Q443.17,141.82,443.16,145.11Z"/><path class="cls-1" d="M487.2,138.44a230.16,230.16,0,0,0-17.09,55.64H453.34l.83-2.06a18.22,18.22,0,0,1-8.82,2.33,11.75,11.75,0,0,1-9.64-4.25,15.56,15.56,0,0,1-3.24-10.23,27.79,27.79,0,0,1,6.3-17.59q6.76-8.53,16-8.54,6.94,0,10.05,4.52,2.59-9.09,5.48-19.82Zm-26.91,30.31c0-3.18-1.57-4.78-4.71-4.78a7.78,7.78,0,0,0-5.89,2.83,9,9,0,0,0-2.56,6.19q0,5,5,5a7.42,7.42,0,0,0,5.94-2.92A9.7,9.7,0,0,0,460.29,168.75Z"/><path class="cls-1" d="M516.61,168.22a72.15,72.15,0,0,1-.5,7.4H489.75a7.47,7.47,0,0,0-.36,2.42,4.08,4.08,0,0,0,2.05,3.52,7.14,7.14,0,0,0,4.07,1.23c2.68,0,5.13-1.3,7.35-3.92h11.52a26.62,26.62,0,0,1-9,11.55A22.71,22.71,0,0,1,491.63,195q-6.72,0-10.72-4t-4-10.78q0-10,7.76-18.23t17.73-8.22Q516.62,153.74,516.61,168.22Zm-10.27,1.05q-.42-5.07-5.58-5.07-4.29,0-8.31,5.07Z"/></g></g></svg>