<svg xmlns="http://www.w3.org/2000/svg" viewBox="0 0 696.25 113.71"><defs><style>.cls-1{fill:#f15a29;}</style></defs><g id="Layer_2" data-name="Layer 2"><g id="Layer_1-2" data-name="Layer 1"><path d="M87.71,0V16.21H29.88q-4.81,0-4.81,4.62V31q0,6,6.6,8.9l37.11,16q9.14,4,9.14,17.46V94.89q0,8.61-5,13.59-5.4,5.22-15.44,5.23h-36q-10.13,0-15.78-4.69T0,96.15V75.89H25.07V92.62q0,4.88,4.39,4.88H48.12c3.2,0,4.81-1.54,4.81-4.63V82.67a8.84,8.84,0,0,0-5.83-8.84L10,57.83Q0,53.6,0,40.35V18.82Q0,0,20.51,0Z"/><path d="M167.14,0V16.21H85.76V0Zm-9.28,113.71H104.34q-8.86,0-13.93-5.4a17.24,17.24,0,0,1-4.65-12.39V77.38q0-14.74,18.07-14.74h23.3V44.15q0-4.14-3.55-4.14H114.3q-4,0-4,3.8v11.9H85.76V45q0-16.87,20.77-16.88h26.59q18.4,0,18.4,17.37v52h6.34ZM127.13,102V72H115c-3.15,0-4.72,1.4-4.72,4.22V96.91c0,3.37,1.65,5.06,5,5.06Z"/><path d="M239.74,113.71H215V46.85a5.57,5.57,0,0,0-.25-2.15,1.15,1.15,0,0,0-1.1-.47q-2.35,0-8.78,5.49a34,34,0,0,0-7.17,8.19V97.5h7.85v16.21H166V97.5h8.1V16.21H166V0H197.7V40.27a41.12,41.12,0,0,1,10.63-7.69c5.75-3,11-4.55,15.88-4.55s8.56,1.28,11.35,3.84a13.27,13.27,0,0,1,4.18,10.25ZM250.54,0V16.21H205.8V0Z"/><path d="M376.07,0V16.21H249.28V0Zm-11,113.71H340.36V46.85a5.57,5.57,0,0,0-.25-2.15,1.13,1.13,0,0,0-1.09-.47q-2.36,0-8.74,5.5a35.76,35.76,0,0,0-7.23,8.2v55.78H298.32V46.85a5.57,5.57,0,0,0-.25-2.15,1.15,1.15,0,0,0-1.1-.47q-2.37,0-8.78,5.49A34,34,0,0,0,281,57.91V97.5h7.85v16.21H249.28V97.5h8.1V42.38h-8.1V28H281V40.27a41.12,41.12,0,0,1,10.63-7.69Q300.26,28,307.52,28,321.27,28,323,40.27a43.21,43.21,0,0,1,10.64-7.69Q342.29,28,349.56,28t11.36,3.84a13.27,13.27,0,0,1,4.17,10.25Z"/><path class="cls-1" d="M473.23,113.71H441.07V74.88q0-8.37-8.75-8.36H416.59v31h16.54v16.21H374.89V97.5h16.54V16.21H374.89V0h70.48Q465.8,0,465.8,18.82V43.3q0,17.14-11,18.91v.51q11,0,11,13.22V97.5h7.43Zm-32.5-73V21.09q0-4.87-4.9-4.88H416.59V50.14h16Q440.73,50.14,440.73,40.71Z"/><path class="cls-1" d="M524.64,8.44q0,3.47-5.91,5.91T503.87,16.8a38,38,0,0,1-14.56-2.45q-5.87-2.44-5.87-5.91t5.87-6A38,38,0,0,1,503.87,0a39.19,39.19,0,0,1,14.77,2.45Q524.64,4.89,524.64,8.44Zm-.51,105.27H483.78V97.5h8.1v-55h-8.1V28.11h40.35V42.46H516.2v55h7.93Z"/><path class="cls-1" d="M609.31,113.71H552q-10.05,0-15.37-5.32-5.05-4.9-5.06-13.51V45.75q0-8.86,6.58-13.59,5.65-4,14.36-4h25.32V16.21h-7V0h31.4V97.5h7.1ZM563,0V16.21h-31.4V0Zm17.48,44.84q0-5-4.16-5H563c-2.87,0-4.3,1.7-4.3,5.08v52.4q0,4.65,4.72,4.65H576c3,0,4.48-1.49,4.48-4.47Z"/><path class="cls-1" d="M696.25,0V16.21H616V0Zm-9.62,77.58H640.46V97.33c0,3.1,1.57,4.64,4.72,4.64h12.58q4.4,0,4.39-4.81V85.68h24.48V96.23q0,8.1-5.83,12.79t-15.61,4.69H636.4q-10,0-15.36-5.32Q616,103.49,616,94.88V45.75q0-8.86,6.59-13.59,5.66-4,14.35-4H666.2q20.43,0,20.43,18.15Zm-24.48-9.71v-23q0-5-4-5H644.84q-4.38,0-4.38,5.1V67.87Z"/></g></g></svg>