<svg xmlns="http://www.w3.org/2000/svg" viewBox="0 0 1074.61 302.45"><defs><style>.cls-1,.cls-6{fill:#0a263b;}.cls-2,.cls-3{fill:#2a9df4;}.cls-3{font-size:290.43px;font-family:FerroRosso, Ferro Rosso;}.cls-4{fill:#fff;}.cls-5{fill:#231f20;}.cls-6{fill-rule:evenodd;}</style></defs><g id="Layer_2" data-name="Layer 2"><g id="Layer_1-2" data-name="Layer 1"><path class="cls-1" d="M466.06,46.93v16.2H408.24c-3.21,0-4.81,1.55-4.81,4.62V77.92q0,6,6.6,8.9l37.11,16q9.14,4,9.13,17.47v21.51q0,8.61-5,13.58-5.4,5.23-15.45,5.23h-36q-10.14,0-15.79-4.68t-5.65-12.87V122.82h25.07v16.73q0,4.88,4.39,4.88h18.65q4.81,0,4.81-4.64V129.6a8.84,8.84,0,0,0-5.82-8.84l-37.14-16q-10-4.22-10-17.47V65.75q0-18.82,20.51-18.82Z"/><path class="cls-1" d="M545.5,46.93v16.2H464.12V46.93Zm-9.29,113.7H482.69q-8.87,0-13.93-5.39a17.29,17.29,0,0,1-4.64-12.39V124.31q0-14.75,18.07-14.75h23.29V91.08q0-4.14-3.54-4.14h-9.29q-4,0-4,3.8v11.9H464.12V91.92Q464.12,75,484.89,75h26.59q18.4,0,18.4,17.37v52h6.33ZM505.48,148.9v-30H493.33q-4.72,0-4.73,4.22v20.69q0,5.06,5,5.06Z"/><path class="cls-1" d="M618.09,160.63H593.36V93.78a5.53,5.53,0,0,0-.25-2.15,1.15,1.15,0,0,0-1.1-.47q-2.37,0-8.78,5.49a33.4,33.4,0,0,0-7.17,8.19v39.59h7.85v16.2h-39.6v-16.2h8.11V63.13h-8.11V46.93h31.75V87.19a41.35,41.35,0,0,1,10.63-7.68q8.61-4.56,15.87-4.56t11.35,3.84a13.26,13.26,0,0,1,4.18,10.26ZM628.9,46.93v16.2H584.16V46.93Z"/><path class="cls-1" d="M754.42,46.93v16.2H627.63V46.93Zm-11,113.7H718.72V93.78a5.47,5.47,0,0,0-.26-2.15c-.16-.31-.53-.47-1.09-.47q-2.36,0-8.73,5.49a35.73,35.73,0,0,0-7.23,8.2v55.78H676.68V93.78a5.47,5.47,0,0,0-.26-2.15c-.16-.31-.53-.47-1.09-.47q-2.37,0-8.78,5.49a33.66,33.66,0,0,0-7.18,8.19v39.59h7.85v16.2H627.63v-16.2h8.11V89.3h-8.11V75h31.74V87.19A41.42,41.42,0,0,1,670,79.51q8.61-4.56,15.87-4.56,13.75,0,15.45,12.24A43.39,43.39,0,0,1,712,79.51q8.7-4.56,16-4.56t11.35,3.84a13.26,13.26,0,0,1,4.18,10.26Z"/><path class="cls-2" d="M851.59,160.63H819.42V121.8q0-8.35-8.75-8.35H794.94v31h16.55v16.2H753.24v-16.2h16.55V63.13H753.24V46.93h70.49q20.43,0,20.43,18.82V90.23q0,17.14-11,18.91v.51q11,0,11,13.22v21.56h7.43Zm-32.5-73V68c0-3.26-1.64-4.89-4.9-4.89H794.94V97.07h16Q819.08,97.07,819.09,87.64Z"/><path class="cls-2" d="M903,55.37q0,3.47-5.91,5.91c-3.93,1.63-8.89,2.45-14.85,2.45a37.94,37.94,0,0,1-14.56-2.45c-3.92-1.63-5.87-3.6-5.87-5.91s2-4.36,5.87-6a37.75,37.75,0,0,1,14.56-2.45A39,39,0,0,1,897,49.38Q903,51.83,903,55.37Zm-.5,105.26H862.14v-16.2h8.1v-55h-8.1V75h40.35V89.39h-7.94v55h7.94Z"/><path class="cls-2" d="M987.66,160.63H930.34q-10,0-15.36-5.31-5.07-4.9-5.06-13.51V92.68q0-8.87,6.58-13.59,5.65-4.05,14.35-4h25.33V63.13h-7V46.93h31.4v97.5h7.09ZM941.32,46.93v16.2h-31.4V46.93Zm17.47,44.84q0-5-4.15-5H941.32q-4.3,0-4.31,5.08v52.39q0,4.66,4.73,4.66h12.58q4.47,0,4.47-4.47Z"/><path class="cls-2" d="M1074.61,46.93v16.2H994.33V46.93ZM1065,124.5h-46.18v19.76q0,4.63,4.73,4.64h12.58c2.92,0,4.39-1.6,4.39-4.81V132.61H1065v10.55q0,8.1-5.83,12.79t-15.62,4.68h-28.78q-10.05,0-15.36-5.31-5.07-4.9-5.07-13.51V92.68q0-8.87,6.58-13.59,5.65-4.05,14.36-4h29.29Q1065,75,1065,93.19Zm-24.48-9.7v-23c0-3.33-1.36-5-4.06-5H1023.2q-4.4,0-4.39,5.1V114.8Z"/><path class="cls-2" d="M418.09,187.36a230.5,230.5,0,0,0-17,55.65H384.29q7-18.1,16.95-55.65Z"/><path class="cls-2" d="M447.88,217.15c0,1.8-.17,4.26-.5,7.4H421a7.2,7.2,0,0,0-.37,2.42,4.11,4.11,0,0,0,2.06,3.52,7.11,7.11,0,0,0,4.06,1.23q4,0,7.36-3.93h11.51a26.62,26.62,0,0,1-8.95,11.56,22.76,22.76,0,0,1-13.8,4.57q-6.72,0-10.71-4t-4-10.78q0-10,7.77-18.23t17.72-8.22Q447.88,202.67,447.88,217.15Zm-10.28,1q-.41-5.07-5.57-5.07-4.3,0-8.32,5.07Z"/><path class="cls-2" d="M485.2,202.67l-3.79,12.61q-4.85-.21-9.37-.37a243.43,243.43,0,0,0-6.67,28.1H448.61q4.15-10.65,9.27-28.1c-3.19.09-6.29.21-9.27.37l3.84-12.61q4.24.22,8.9.32,2-7.31,4.21-15.63h16.9q-3.52,7.72-6.4,15.63C479,202.9,482,202.79,485.2,202.67Z"/><path class="cls-2" d="M523.44,210.8a6.83,6.83,0,0,1-1.74,4.64,5.59,5.59,0,0,1-4.39,2,11.24,11.24,0,0,1-5.39-1.73,5.91,5.91,0,0,0,1.74-3.43c0-1.43-1-2.15-3.06-2.15q-4,0-4,4c0,1.58,1.07,3.29,3.2,5.11a46.7,46.7,0,0,1,5.94,5.62,15.81,15.81,0,0,1,3.24,10q0,6.61-6.44,11.1a21.83,21.83,0,0,1-12.7,4,25.44,25.44,0,0,1-12.65-3.2q-6.85-3.84-6.86-10.28a9.68,9.68,0,0,1,5.26-9,10.54,10.54,0,0,1,5.16-1.55,13,13,0,0,1,7.35,2.65,4.85,4.85,0,0,0-2.88,4.7q0,4.48,4.89,4.48,6.17,0,6.17-5,0-2.92-3.56-5.35l-6.63-4.48a9.38,9.38,0,0,1-3.52-7.4q0-13,17.46-13Q523.44,202.53,523.44,210.8Z"/><path class="cls-2" d="M591.59,195.77a9.17,9.17,0,0,1-2.15,6,7,7,0,0,1-5.66,2.79,14,14,0,0,1-6.9-2.29q2.61-2.73,2.61-4.7a3,3,0,0,0-1.37-2.52,4.94,4.94,0,0,0-2.93-1q-5.66,0-5.66,6.26,0,4.24,4.29,8l7.95,7A19,19,0,0,1,586,228q0,8.49-8.22,14.43a27.36,27.36,0,0,1-16.31,5.44,31.58,31.58,0,0,1-16.13-3.93,17.67,17.67,0,0,1-6-5.92,14.58,14.58,0,0,1-2.37-7.88q0-8.09,6.53-12.15a12.12,12.12,0,0,1,6.44-2.05q4.38,0,9.27,3.51-4.79,2-4.79,6.63,0,6.3,8,6.3,7.8,0,7.81-7,0-4.51-4.21-8.31l-7.71-6.95a15.59,15.59,0,0,1-4.16-10.73q0-14.53,20.37-14.53Q591.59,184.85,591.59,195.77Z"/><path class="cls-2" d="M628.82,210.3q0,5.65-2.88,16.49-1.28,4.85-4.88,16.22H609l7-23a9.32,9.32,0,0,0,.43-2.51q0-3.53-4.11-3.52-4.89,0-6.71,5.57A193.71,193.71,0,0,0,600,243H583.28q7-18.1,16.9-55.65h16.9q-3.74,9-7,18.37a14.5,14.5,0,0,1,9.64-3.11Q628.82,202.62,628.82,210.3Z"/><path class="cls-2" d="M676.1,203a282.7,282.7,0,0,0-12.19,40H648.6l.69-2.24a18.27,18.27,0,0,1-9.09,2.51,11.77,11.77,0,0,1-9.64-4.25,15.56,15.56,0,0,1-3.24-10.23,27.77,27.77,0,0,1,6.3-17.59q6.76-8.53,16-8.54,6.81,0,9.92,4.34l1.23-4Zm-21,14.69q0-4.78-4.71-4.78a7.75,7.75,0,0,0-5.89,2.82,9,9,0,0,0-2.56,6.2q0,5,5,5A7.48,7.48,0,0,0,652.9,224,9.7,9.7,0,0,0,655.14,217.68Z"/><path class="cls-2" d="M714.2,213.18c-1.76-.89-4.87-1.33-9.31-1.33a13.15,13.15,0,0,0-8.81,3q-3.93,3.34-10.78,27.41h0L685,243H669.71l12.15-40h6.76a16.58,16.58,0,0,1,6.53-1.19Q702.79,201.8,714.2,213.18Z"/><path class="cls-2" d="M747.55,217.15c0,1.8-.17,4.26-.5,7.4H720.69a7.2,7.2,0,0,0-.37,2.42,4.11,4.11,0,0,0,2.06,3.52,7.11,7.11,0,0,0,4.06,1.23c2.68,0,5.14-1.31,7.36-3.93h11.51a26.62,26.62,0,0,1-8.95,11.56,22.72,22.72,0,0,1-13.8,4.57q-6.7,0-10.71-4t-4-10.78q0-10,7.77-18.23t17.72-8.22Q747.54,202.67,747.55,217.15Zm-10.28,1q-.4-5.07-5.57-5.07-4.29,0-8.32,5.07Z"/><path class="cls-1" d="M811.69,250.68Q800.26,262.1,792.5,262.1a17.06,17.06,0,0,1-12.61-4.89q-5.61-5.61-14.84-29.78L760.3,243h-18a256.67,256.67,0,0,0,17-55.65h21.24q14.16,0,17.68,9.19a26.34,26.34,0,0,1,1.82,9.36,21.7,21.7,0,0,1-5.23,14,21.14,21.14,0,0,1-12.58,7.86q6.95,15.57,12.19,19.46,5.94,4.38,10.79,4.38Q809.86,251.59,811.69,250.68ZM783.5,204.63q0-5.38-6.9-5.39a26.78,26.78,0,0,0-3,.18l-4.56,14.85a17.27,17.27,0,0,0,5.39,1,8.08,8.08,0,0,0,6.76-3.29A11.72,11.72,0,0,0,783.5,204.63Z"/><path class="cls-1" d="M822.17,203,810,243H794.69l12.15-40Zm5.28-9q0,3.16-3.75,5.07a14,14,0,0,1-6.53,1.56,14.64,14.64,0,0,1-6.67-1.56c-2.5-1.24-3.75-2.95-3.75-5.11s1.34-3.87,4-5.12a16,16,0,0,1,6.86-1.51,13.29,13.29,0,0,1,6.39,1.51Q827.46,190.75,827.45,194Z"/><path class="cls-1" d="M871.48,187.36A230.81,230.81,0,0,0,854.4,243H837.63l.83-2.06a18.33,18.33,0,0,1-8.82,2.33A11.78,11.78,0,0,1,820,239a15.56,15.56,0,0,1-3.24-10.23,27.77,27.77,0,0,1,6.3-17.59q6.77-8.53,16-8.54,6.93,0,10,4.52,2.6-9.09,5.48-19.83Zm-26.9,30.32q0-4.78-4.71-4.78a7.77,7.77,0,0,0-5.89,2.82,9,9,0,0,0-2.56,6.2q0,5,5,5a7.46,7.46,0,0,0,5.94-2.92A9.7,9.7,0,0,0,844.58,217.68Z"/><path class="cls-1" d="M900.9,217.15a72.33,72.33,0,0,1-.5,7.4H874a7.47,7.47,0,0,0-.36,2.42,4.1,4.1,0,0,0,2.05,3.52,7.14,7.14,0,0,0,4.07,1.23q4,0,7.35-3.93h11.52a26.64,26.64,0,0,1-9,11.56,22.71,22.71,0,0,1-13.79,4.57q-6.72,0-10.72-4t-4-10.78q0-10,7.76-18.23t17.73-8.22Q900.91,202.67,900.9,217.15Zm-10.28,1q-.4-5.07-5.57-5.07-4.29,0-8.31,5.07Z"/><path class="cls-1" d="M70.78,244.79V217.56h97.14q8.09,0,8.08-7.76V192.73q0-10.15-11.09-15l-62.34-26.92q-15.34-6.66-15.34-29.33V85.37q0-14.45,8.37-22.81,9.08-8.79,26-8.79H182.1q17,0,26.52,7.87t9.5,21.63v34H176V89.19Q176,81,168.63,81H137.29q-8.08,0-8.08,7.78V105.9q0,10.75,9.78,14.86l62.4,26.88q16.73,7.1,16.73,29.36v36.16q0,31.62-34.46,31.63Z"/><text class="cls-3" transform="translate(227.24 240.76)">r</text><rect class="cls-4" y="194.15" width="171.56" height="68.44"/><path class="cls-5" d="M183.17,242.12a18.1,18.1,0,0,1-2.21,0Z"/><path class="cls-6" d="M183.17,242.12h.75a8.33,8.33,0,0,0,3.82-.65A29.05,29.05,0,0,1,183.17,242.12Zm-27.62-22.49a13.75,13.75,0,1,0,13.76,13.75A13.74,13.74,0,0,0,155.55,219.63Z"/><path class="cls-6" d="M202.68,233.35c-.89,2.84-8,6.6-14.94,8.12a29.05,29.05,0,0,1-4.57.65H170.34a17.17,17.17,0,1,0-29.57,0H64.11a2.22,2.22,0,0,0,0,.45V250a5.65,5.65,0,0,1-1.66,4,5.56,5.56,0,0,1-4,1.66v-6.52a2.61,2.61,0,0,0,2.6-2.6V226.2a2.61,2.61,0,0,1,.76-1.84,2.6,2.6,0,0,1,4.43,1.84v6.52a5.67,5.67,0,0,0,11.33,0V217.46a2.6,2.6,0,0,1,5.2,0v6.72a5.67,5.67,0,0,0,11.33,0v-6.53a2.6,2.6,0,0,1,5.19,0V220a4.69,4.69,0,0,0,6.48,3.84A229.64,229.64,0,0,0,127.43,209c1.21-1,2.35-1.94,3.39-2.88.35.18,9.79,1.27,19.9,2.88,8.43,1.35,17.33,3.05,21.84,4.89a100.56,100.56,0,0,1,9.71,4.47h0l.12.06.22.12C185.42,220,203.82,229.71,202.68,233.35Z"/><path class="cls-6" d="M98.49,200.12a2.59,2.59,0,1,0,0,3.66A2.57,2.57,0,0,0,98.49,200.12ZM82,199a2.6,2.6,0,1,0,0,3.67A2.58,2.58,0,0,0,82,199Zm-16.53,8.84a2.59,2.59,0,1,0,0,3.67A2.59,2.59,0,0,0,65.43,207.79ZM82,199a2.6,2.6,0,1,0,0,3.67A2.58,2.58,0,0,0,82,199Zm16.53,1.17a2.59,2.59,0,1,0,0,3.66A2.57,2.57,0,0,0,98.49,200.12ZM82,199a2.6,2.6,0,1,0,0,3.67A2.58,2.58,0,0,0,82,199Zm16.53,1.17a2.59,2.59,0,1,0,0,3.66A2.57,2.57,0,0,0,98.49,200.12Zm-33.06,7.67a2.59,2.59,0,1,0,0,3.67A2.59,2.59,0,0,0,65.43,207.79Zm65.09-10.13a76,76,0,0,0-10.35,3.42c-1.09.43-6.41-2.62-7.66-3.1-2.78-1.07-5.59-2.08-8.41-3a67.54,67.54,0,0,0-20.77-3.65,114,114,0,0,0-30.59,3.16c-8.23,2-16.42,4.27-24.61,6.49C22,202.59,15.63,205,9.3,205.83c-3.71.51-8,0-8.32,1-2.12,6.64.93,14.69,2,21.32a34,34,0,0,1,.65,7.24A5.37,5.37,0,0,0,4,238.59c1.1,1.73,4.87,1.86,6.74,2.3,1.6.38,3.6,1.23,5.26,1.23h1.23a17.18,17.18,0,1,1,29.55,0H57.94V222.74a5.67,5.67,0,0,1,11.33,0v7.38a2.6,2.6,0,0,0,5.2,0V214a5.65,5.65,0,0,1,1.65-4l0,0a5.67,5.67,0,0,1,9.65,4v6.71a2.63,2.63,0,0,0,.76,1.84A2.6,2.6,0,0,0,91,220.71v-5.65a5.67,5.67,0,0,1,11.33,0v.49a3.49,3.49,0,0,0,1.82,3c2.08,1.13,10.84-4.1,18.28-9.56a74.78,74.78,0,0,0,9.81-8.27C134.37,198.05,133.81,197,130.52,197.66Zm-62.92,16a5.66,5.66,0,1,1,0-8A5.65,5.65,0,0,1,67.6,213.63ZM92.65,198a5.66,5.66,0,1,1,0,8A5.65,5.65,0,0,1,92.65,198Zm-16.53,6.84a5.66,5.66,0,1,1,8,0A5.67,5.67,0,0,1,76.12,204.79Zm22.37-1a2.6,2.6,0,1,0-3.67,0A2.57,2.57,0,0,0,98.49,203.78ZM78.29,199A2.6,2.6,0,1,0,82,199,2.6,2.6,0,0,0,78.29,199Zm-16.52,8.84a2.59,2.59,0,1,0,3.66,0A2.58,2.58,0,0,0,61.77,207.79ZM82,199a2.6,2.6,0,1,0,0,3.67A2.58,2.58,0,0,0,82,199Zm16.53,1.17a2.59,2.59,0,1,0,0,3.66A2.57,2.57,0,0,0,98.49,200.12Zm-33.06,7.67a2.59,2.59,0,1,0,0,3.67A2.59,2.59,0,0,0,65.43,207.79ZM32,219.63a13.76,13.76,0,1,0,13.76,13.75A13.74,13.74,0,0,0,32,219.63Zm33.4-11.84a2.59,2.59,0,1,0,0,3.67A2.59,2.59,0,0,0,65.43,207.79Z"/><text/></g></g></svg>